<?xml version="1.0" encoding="iso-8859-1"?>
<!-- Generator: Adobe Illustrator 23.0.2, SVG Export Plug-In . SVG Version: 6.00 Build 0)  -->
<svg version="1.1" id="Layer_1" xmlns="http://www.w3.org/2000/svg" xmlns:xlink="http://www.w3.org/1999/xlink" x="0px" y="0px"
	 viewBox="0 0 442 136" style="enable-background:new 0 0 442 136;" xml:space="preserve">
<g>
	<path style="fill:#5D575A;" d="M99.295,39.606c-1.117-4.604-2.716-9.102-4.764-13.366c-2.084-4.325-4.942-8.3-8.5-11.828
		c-3.917-3.884-8.622-7.078-14.001-9.505c-5.414-2.429-11.638-3.668-18.498-3.668c-6.858,0-13.082,1.239-18.494,3.673
		c-5.381,2.421-10.092,5.616-13.996,9.499c-3.569,3.528-6.424,7.503-8.508,11.828c-2.043,4.244-3.645,8.747-4.764,13.366
		c-1.104,4.589-1.817,9.336-2.104,14.118c-0.284,4.665-0.434,9.32-0.434,13.838c0,4.523,0.15,9.209,0.434,13.925
		c0.287,4.838,1,9.625,2.104,14.209c1.119,4.63,2.721,9.133,4.764,13.371c2.084,4.325,4.939,8.3,8.5,11.823
		c3.907,3.883,8.617,7.076,14.003,9.503c5.412,2.432,11.635,3.67,18.494,3.67c6.861,0,13.084-1.238,18.498-3.675
		c5.381-2.422,10.095-5.615,13.996-9.498c3.564-3.523,6.422-7.498,8.506-11.823c2.048-4.254,3.647-8.757,4.764-13.371
		c1.104-4.615,1.817-9.391,2.107-14.209c0.282-4.787,0.437-9.473,0.437-13.925s-0.155-9.107-0.437-13.838
		C101.113,48.962,100.399,44.221,99.295,39.606z M88.912,79.289c-0.175,4.01-0.658,8.072-1.439,12.077
		c-0.777,3.965-2.01,7.843-3.662,11.523c-1.624,3.599-3.876,6.833-6.698,9.61c-3.033,2.995-6.604,5.295-10.602,6.848
		c-8.033,3.117-17.925,3.117-25.953,0c-4.005-1.548-7.569-3.853-10.605-6.848c-2.815-2.767-5.071-6-6.696-9.61
		c-1.66-3.696-2.901-7.569-3.67-11.523c-0.777-4.005-1.259-8.066-1.426-12.077c-0.168-4.076-0.254-7.99-0.254-11.727
		c0-3.614,0.086-7.493,0.254-11.64c0.167-4.066,0.65-8.158,1.426-12.168c0.769-3.944,2.01-7.782,3.665-11.412
		c1.629-3.554,3.883-6.762,6.706-9.539c3.021-2.99,6.589-5.29,10.6-6.848c4.028-1.558,8.394-2.345,12.975-2.345
		c4.584,0,8.95,0.787,12.978,2.345c4.008,1.558,7.577,3.863,10.602,6.848c2.823,2.787,5.079,5.995,6.698,9.539
		c1.657,3.62,2.886,7.457,3.662,11.412c0.782,4.01,1.264,8.102,1.439,12.168c0.162,4.147,0.246,8.026,0.246,11.64
		C89.158,71.298,89.074,75.212,88.912,79.289z"/>
	<polygon style="fill:#5D575A;" points="127.977,132.256 140.308,132.256 140.308,82.106 192.367,82.106 192.367,69.907 
		140.308,69.907 140.308,16.199 207.728,16.199 207.728,4.009 127.977,4.009 	"/>
	<path style="fill:#5D575A;" d="M307.267,66.308c4.797-6.508,7.229-14.316,7.229-23.215c0-5.818-0.934-11.178-2.787-15.95
		c-1.871-4.797-4.675-8.99-8.348-12.452c-3.658-3.442-8.201-6.116-13.498-7.951c-5.254-1.833-11.366-2.744-18.168-2.744h-46.241
		v128.422h12.333V82.004h39.693l21.793,50.363h13.503l-22.925-53.394C296.997,76.553,302.845,72.304,307.267,66.308z
		 M294.093,62.877c-5.223,4.533-12.759,7.021-22.4,7.021h-33.908V16.25h33.908c9.635,0,17.176,2.528,22.4,7.051
		c5.203,4.513,7.732,10.99,7.732,19.793S299.297,58.379,294.093,62.877z"/>
	<path style="fill:#5D575A;" d="M423.268,132.256H436L387.949,4.014h-11.12l-47.526,128.242h12.904l18.45-50.135h0.008l-1.906,5.188
		h0.015l1.906-5.188h43.756L423.268,132.256z M365.174,69.902l17.151-46.663l-17.161,46.663h-0.01l17.171-46.663l17.521,46.663
		H365.174z"/>
</g>
</svg>
